<svg width="12" height="12" viewBox="0 0 12 12" fill="none" xmlns="http://www.w3.org/2000/svg">
<path fill-rule="evenodd" clip-rule="evenodd" d="M5.25001 0.599976C4.8124 0.599976 4.39271 0.773814 4.08328 1.08325C3.77384 1.39268 3.60001 1.81237 3.60001 2.24998V2.51578C3.12301 2.56198 2.64961 2.62138 2.18101 2.69458C2.12176 2.70265 2.06471 2.72245 2.0132 2.75282C1.96168 2.78319 1.91674 2.82352 1.881 2.87146C1.84525 2.9194 1.81942 2.97398 1.80501 3.03202C1.7906 3.09005 1.7879 3.15038 1.79707 3.20947C1.80624 3.26856 1.8271 3.32523 1.85842 3.37617C1.88974 3.42711 1.9309 3.47129 1.9795 3.50614C2.02809 3.54099 2.08314 3.5658 2.14144 3.57913C2.19973 3.59246 2.2601 3.59404 2.31901 3.58378L2.40841 3.57058L2.91301 9.88138C2.94604 10.2949 3.13363 10.6808 3.4384 10.9622C3.74318 11.2436 4.14277 11.3999 4.55761 11.4H7.44181C7.85665 11.4001 8.25631 11.244 8.5612 10.9626C8.86609 10.6813 9.05382 10.2955 9.08701 9.88198L9.59161 3.56998L9.68101 3.58378C9.79783 3.59969 9.91623 3.56912 10.0107 3.49864C10.1053 3.42817 10.1683 3.32341 10.1864 3.20691C10.2045 3.0904 10.1761 2.97145 10.1074 2.87564C10.0387 2.77983 9.93515 2.71482 9.81901 2.69458C9.34784 2.62125 8.87464 2.56162 8.40001 2.51578V2.24998C8.40001 1.81237 8.22617 1.39268 7.91673 1.08325C7.6073 0.773814 7.18761 0.599976 6.75001 0.599976H5.25001ZM6.00001 2.39998C6.50401 2.39998 7.00381 2.41498 7.50001 2.44498V2.24998C7.50001 1.83598 7.16401 1.49998 6.75001 1.49998H5.25001C4.83601 1.49998 4.50001 1.83598 4.50001 2.24998V2.44498C4.99621 2.41498 5.49601 2.39998 6.00001 2.39998ZM5.14801 4.63198C5.14323 4.51263 5.09124 4.40007 5.00348 4.31905C4.91571 4.23803 4.79935 4.1952 4.68001 4.19998C4.56066 4.20475 4.4481 4.25674 4.36708 4.34451C4.28606 4.43227 4.24323 4.54863 4.24801 4.66798L4.42801 9.16798C4.43037 9.22707 4.44435 9.28512 4.46915 9.33881C4.49395 9.3925 4.52908 9.44079 4.57254 9.4809C4.61599 9.52102 4.66693 9.55218 4.72243 9.57261C4.77793 9.59304 4.83691 9.60234 4.89601 9.59998C4.9551 9.59761 5.01315 9.58363 5.06684 9.55883C5.12054 9.53403 5.16882 9.4989 5.20893 9.45545C5.24905 9.41199 5.28021 9.36105 5.30064 9.30555C5.32107 9.25005 5.33037 9.19107 5.32801 9.13198L5.14801 4.63198ZM7.75201 4.66798C7.75437 4.60888 7.74507 4.5499 7.72464 4.4944C7.70421 4.4389 7.67305 4.38796 7.63293 4.34451C7.59282 4.30105 7.54454 4.26592 7.49084 4.24112C7.43715 4.21632 7.3791 4.20234 7.32001 4.19998C7.20066 4.1952 7.0843 4.23803 6.99654 4.31905C6.90877 4.40007 6.85678 4.51263 6.85201 4.63198L6.67201 9.13198C6.66964 9.19107 6.67894 9.25005 6.69937 9.30555C6.7198 9.36105 6.75097 9.41199 6.79108 9.45545C6.83119 9.4989 6.87948 9.53403 6.93317 9.55883C6.98686 9.58363 7.04491 9.59761 7.10401 9.59998C7.1631 9.60234 7.22208 9.59304 7.27758 9.57261C7.33308 9.55218 7.38402 9.52102 7.42748 9.4809C7.47093 9.44079 7.50606 9.3925 7.53086 9.33881C7.55566 9.28512 7.56964 9.22707 7.57201 9.16798L7.75201 4.66798Z" fill="#E04E4E"/>
</svg>
