<svg width="10" height="10" viewBox="0 0 10 10" fill="none" xmlns="http://www.w3.org/2000/svg">
<path d="M5.58922 0.875052C5.58922 0.718764 5.52713 0.568877 5.41662 0.458364C5.30611 0.347852 5.15622 0.285767 4.99993 0.285767C4.84364 0.285767 4.69376 0.347852 4.58324 0.458364C4.47273 0.568877 4.41065 0.718764 4.41065 0.875052V4.41077H0.87493C0.718642 4.41077 0.568755 4.47285 0.458242 4.58337C0.34773 4.69388 0.285645 4.84376 0.285645 5.00005C0.285645 5.15634 0.34773 5.30623 0.458242 5.41674C0.568755 5.52725 0.718642 5.58934 0.87493 5.58934H4.41065V9.12505C4.41065 9.28134 4.47273 9.43123 4.58324 9.54174C4.69376 9.65225 4.84364 9.71434 4.99993 9.71434C5.15622 9.71434 5.30611 9.65225 5.41662 9.54174C5.52713 9.43123 5.58922 9.28134 5.58922 9.12505V5.58934H9.12493C9.28122 5.58934 9.43111 5.52725 9.54162 5.41674C9.65213 5.30623 9.71422 5.15634 9.71422 5.00005C9.71422 4.84376 9.65213 4.69388 9.54162 4.58337C9.43111 4.47285 9.28122 4.41077 9.12493 4.41077H5.58922V0.875052Z" fill="white"/>
</svg>
